<svg xmlns="http://www.w3.org/2000/svg" viewBox="0 0 841.81 595.28"><title>motivational poster v.2</title><rect x="123.26" y="-123.26" width="595.28" height="841.81" transform="translate(718.54 -123.26) rotate(90)" fill="#f27066"/><path d="M835.81,6V589.28H6V6H835.81m6-6H0V595.28H841.81V0h0Z" transform="translate(0 0)" fill="#fffabe"/><rect x="134.68" y="-110.57" width="572.7" height="816.63" transform="translate(718.78 -123.29) rotate(90)" fill="none" stroke="#fffabe" stroke-miterlimit="10" strokeWidth="2"/><circle cx="808.19" cy="31.59" r="9.77" fill="#fffabe"/><circle cx="808.19" cy="561.9" r="9.77" fill="#fffabe"/><circle cx="36.77" cy="31.59" r="9.77" fill="#fffabe"/><circle cx="36.77" cy="561.9" r="9.77" fill="#fffabe"/><polyline points="698.21 335.57 714.62 388.45 397.11 542.44 380.51 489.44 698.21 335.57 698.21 335.57" fill="#e5acbd"/><path d="M668.47,437.69a113.23,113.23,0,0,1-113.2,113.25c-1.53,0-3.06,0-4.55-.09-2.72-.11-5.41-0.32-8.06-0.62A113.21,113.21,0,0,1,461.36,501l-0.27-.41-4.34-7.08-0.27-.48a110.79,110.79,0,0,1-10.26-24.77L445.87,467A113.26,113.26,0,0,1,555.26,324.51a115.45,115.45,0,0,1,12.63.71A113.19,113.19,0,0,1,668.47,437.69Z" transform="translate(0 0)" fill="#78b6e9"/><path d="M560.25,317.64l-2.43-.53h1.68S559.78,317.3,560.25,317.64Z" transform="translate(0 0)" fill="#a9d36c"/><path d="M668.46,437.7a112.34,112.34,0,0,1-9,44.21c-2-.81-4.21-1.71-6.64-2.68-12.56-5.05-17.4-19.58-26.44-24.66s9.6-23.19,6.08-31.83-42.3-18.08-52.19-1.56,14.15,7,15.74,10.1-12.22,13.56-27.87,10.07-15-32.64-10.35-49.66c0.44-1.62,24.16-27,20.26-45.73a47.67,47.67,0,0,0-10.19-20.73A113.19,113.19,0,0,1,668.46,437.7Z" transform="translate(0 0)" fill="#a9d36c"/><path d="M576.15,483.42c15-.71,21.58-15.59,29.76-9s4.91,38.57-6.9,45.4-41-4.59-44.54-16,21-6.63,16.93-13.52S570.69,483.68,576.15,483.42Z" transform="translate(0 0)" fill="#a9d36c"/><path d="M562.78,490.94c-12.75,9.37-28.7,21.86-22.91,49.28a71.9,71.9,0,0,0,2.79,10A113.21,113.21,0,0,1,461.36,501l-0.27-.41-4.34-7.08-0.27-.48a110.79,110.79,0,0,1-10.26-24.77L445.87,467c3.7-1.62,7.72-4.14,9.87-7.88,4.55-8.06,17.27-5.73,18.67.53s17.68,22.71,52.8,21S575.53,481.6,562.78,490.94Z" transform="translate(0 0)" fill="#a9d36c"/><polygon points="397.11 542.44 809.06 444.87 760.46 427.92 792.46 391.87 380.51 489.44 397.11 542.44" fill="#f9c5d2"/><path d="M554.1,558.18l5.14,0.94A7.93,7.93,0,0,1,554.1,558.18Z" transform="translate(0 0)" fill="#a9d36c"/><polygon points="612.4 184.91 626.78 191.23 588.64 310.44 546.36 291.85 612.4 184.91" fill="#fff"/><circle cx="584.23" cy="319.47" r="21.61" fill="#fff"/><circle cx="612.17" cy="302.18" r="4.86" fill="#fff"/><circle cx="573.45" cy="314.46" r="8.29" fill="#fff"/><circle cx="533.19" cy="319.47" r="21.61" fill="#fff"/><circle cx="548.85" cy="297.87" r="21.61" fill="#edebeb"/><circle cx="509.17" cy="333.94" r="21.61" fill="#edebeb"/><circle cx="568.57" cy="297.87" r="21.61" fill="#edebeb"/><circle cx="608.25" cy="333.94" r="21.61" fill="#edebeb"/><circle cx="537.13" cy="341.08" r="13.56" fill="#edebeb"/><circle cx="557.65" cy="338.51" r="13.56" fill="#fff"/><circle cx="579.97" cy="337.92" r="13.56" fill="#fff"/><circle cx="487.71" cy="341.08" r="13.56" fill="#fff"/><circle cx="629.86" cy="341.08" r="13.56" fill="#fff"/><circle cx="497.67" cy="302.18" r="6.78" fill="#fff"/><circle cx="638.15" cy="313.22" r="8.29" fill="#fff"/><circle cx="560.25" cy="313.22" r="8.29" fill="#fff"/><circle cx="589.6" cy="302.18" r="12.29" fill="#fff"/><circle cx="539.74" cy="322.76" r="14.26" fill="#fff"/><circle cx="530.78" cy="302.18" r="8.29" fill="#fff"/><circle cx="598.52" cy="322.76" r="12.29" fill="#fff"/><circle cx="543.69" cy="304.93" r="8.29" fill="#fff"/><circle cx="579" cy="312.34" r="16.75" fill="#fff"/><circle cx="566.05" cy="297.87" r="8.29" fill="#fff"/><circle cx="612.62" cy="332" r="6.78" fill="#fff"/><circle cx="524" cy="347.86" r="6.78" fill="#fff"/><circle cx="522.73" cy="327.52" r="6.78" fill="#fff"/><circle cx="539.79" cy="280.62" r="6.78" fill="#fff"/><circle cx="589.06" cy="286.52" r="6.78" fill="#fff"/><circle cx="550.69" cy="276.26" r="6.78" fill="#fff"/><circle cx="557.65" cy="327.52" r="8.29" fill="#fff"/><polygon points="714.62 388.45 322.3 480.97 352.48 445.48 305.89 428.09 698.21 335.57 714.62 388.45" fill="#f9c5d2"/><line x1="579.18" y1="396.81" x2="686.69" y2="370.17" fill="none"/><path d="M662.33,153.23a73.55,73.55,0,0,1-10.64,17.16l-1.55,1.82c-1.1,1.26-2.19,2.43-3.3,3.54-0.58.59-1.17,1.18-1.76,1.72a78.49,78.49,0,0,1-18.41,13.32s-3.38-1.68-6.91-3.36l45.7-103.94s4.75,11.9,5,29.41A96.25,96.25,0,0,1,662.33,153.23Z" transform="translate(0 0)" fill="#fff"/><path d="M662.32,153.23a73.56,73.56,0,0,1-10.64,17.16l-1.55,1.82c-1.1,1.26-2.19,2.43-3.3,3.54-0.58.59-1.17,1.18-1.76,1.72a78.49,78.49,0,0,1-18.41,13.32s-13.63-6.81-15-6.58c0,0-4.3-7.48-2.82-22.65,0.06-.77.15-1.58,0.27-2.38,0.18-1.49.43-3,.73-4.67,0.15-.73.31-1.51,0.5-2.28a109.08,109.08,0,0,1,6.86-20.49,93.39,93.39,0,0,1,23.37-31.93c12.87-11.56,24.85-16.33,24.85-16.33s4.75,11.9,5,29.41A96.25,96.25,0,0,1,662.32,153.23Z" transform="translate(0 0)" fill="#fff"/><circle cx="646.77" cy="126.01" r="13.33" transform="translate(271.11 667.36) rotate(-66.27)" fill="#ff3a03"/><circle cx="646.77" cy="126.01" r="11.04" transform="translate(271.11 667.36) rotate(-66.27)" fill="#fff"/><path d="M646.83,175.74c-0.58.59-1.17,1.18-1.76,1.72l-36.2-15.92c0.06-.77.15-1.58,0.27-2.38Z" transform="translate(0 0)" fill="#fffabe"/><path d="M497.57,77c0,10.42-12.23,10.41-12.23,10.41l-21.8,0s-10.24,1-10.24,9.77c0,8.27,9.75,9.54,9.75,9.54h98.58s10.44-1.12,10.44-8.62-10.21-10.11-9.42-10-37.87,0-37.87,0-9.25-1.76-9.25-10.22c0-9.92,10.11-9.84,10.11-9.84h18.81s9.29-2.55,9.29-9.7-9.37-9.26-9.37-9.26H444.46s-7.63,1.55-7.63,9.26,9.91,8.65,9.91,8.65h38.61S497.57,68.11,497.57,77Z" transform="translate(0 0)" fill="#fff"/><path d="M392.62,225.1c0,8.67-10.17,8.66-10.17,8.66l-18.14,0s-8.52.86-8.52,8.13c0,6.88,8.11,7.94,8.11,7.94h82s8.69-.93,8.69-7.17-8.5-8.41-7.83-8.28-31.51,0-31.51,0-7.69-1.47-7.69-8.51c0-8.25,8.41-8.19,8.41-8.19h15.65s7.73-2.12,7.73-8.07-7.79-7.71-7.79-7.71H348.43s-6.35,1.29-6.35,7.71,8.25,7.2,8.25,7.2h32.12S392.62,217.7,392.62,225.1Z" transform="translate(0 0)" fill="#fff"/><path d="M717.37,264.54c0,8.38-9.33,8.38-9.33,8.38l-16.63,0s-7.81.83-7.81,7.86c0,6.66,7.44,7.68,7.44,7.68h75.2s8-.9,8-6.94-7.79-8.14-7.18-8,22,0,22,0,6.91-2.1,6.91-7.89-7.1-8.26-7.1-8.26H753.14s7.08-2.05,7.08-7.81-7.15-7.46-7.15-7.46H676.86a7.58,7.58,0,0,0-5.82,7.46c0,6.2,7.56,7,7.56,7H708S717.37,257.39,717.37,264.54Z" transform="translate(0 0)" fill="#fff"/><path d="M651.68,170.39l-1.55,1.82-40.26-17.7c0.15-.73.31-1.51,0.5-2.28Z" transform="translate(0 0)" fill="#fffabe"/><path d="M662.33,153.23a73.55,73.55,0,0,1-10.64,17.16l-1.55,1.82c-1.1,1.26-2.19,2.43-3.3,3.54-0.58.59-1.17,1.18-1.76,1.72a78.49,78.49,0,0,1-18.41,13.32s-3.38-1.68-6.91-3.36c0,0,25.52-17.36,36-41.26,13-29.54,9.67-62.68,9.67-62.68s4.75,11.9,5,29.41A96.25,96.25,0,0,1,662.33,153.23Z" transform="translate(0 0)" fill="#e8e8e8" opacity="0.65"/><rect x="605.41" y="186.2" width="25.38" height="6.85" rx="1.5" ry="1.5" transform="translate(128.59 -232.74) rotate(23.73)" fill="#842008"/><path d="M670.43,112.89c-8.95-3.89-21.21-9.2-29.83-13,12.9-11.71,24.9-16.57,24.9-16.57S670.24,95.25,670.43,112.89Z" transform="translate(0 0)" fill="#69c"/><path d="M635.69,151.19s-8.34,11.31-13,22-7.18,24-7.18,24,8.59-13.7,12.26-22.06S635.69,151.19,635.69,151.19Z" transform="translate(0 0)" fill="#69c"/><path d="M613,142.79s-12.39,2.33-20.17,13.16c-7.89,11-12.87,25.63-9.7,27,1.3,0.58,25.64-10.75,25.64-10.75s0.11-9.42.68-15.09C610,151.87,613,142.79,613,142.79Z" transform="translate(0 0)" fill="#69c"/><path d="M657.94,161.62s6.62,11.62,3.9,24.67c-2.76,13.25-10.19,26.8-13.36,25.43-1.31-.57-10.55-28.13-10.55-28.13A90.57,90.57,0,0,0,648.49,174,143.17,143.17,0,0,0,657.94,161.62Z" transform="translate(0 0)" fill="#69c"/><line x1="649.86" y1="116.66" x2="638.98" y2="123.31" fill="none" stroke="#d9dadb" sstrokelinecap="round" strokeLinejoin="round" strokeWidth="0.25"/><line x1="650.12" y1="121.76" x2="639.23" y2="128.42" fill="none" stroke="#d9dadb" sstrokelinecap="round" strokeLinejoin="round" strokeWidth="0.25"/><line x1="654.3" y1="123.6" x2="643.42" y2="130.26" fill="none" stroke="#d9dadb" sstrokelinecap="round" strokeLinejoin="round" strokeWidth="0.25"/><line x1="654.55" y1="128.7" x2="643.67" y2="135.36" fill="none" stroke="#d9dadb" sstrokelinecap="round" strokeLinejoin="round" strokeWidth="0.25"/><g opacity="0.56"><path d="M84,73H72.32L70,79.29A2.7,2.7,0,0,1,67.46,81a2.79,2.79,0,0,1-.91-0.14A2.73,2.73,0,0,1,65,77.37L75.59,49a2.69,2.69,0,0,1,2.55-1.68A2.65,2.65,0,0,1,80.69,49L91.32,77.37a2.73,2.73,0,0,1-1.59,3.46,2.69,2.69,0,0,1-3.37-1.54Zm-2-5.29-3.9-10.34-3.9,10.34H82Z" transform="translate(0 0)" fill="#edeeef"/><path d="M95.54,63.66A17.66,17.66,0,0,1,113.2,46.35a18,18,0,0,1,11.11,3.75,2.85,2.85,0,0,1,.48,3.85,2.82,2.82,0,0,1-3.85.53,12,12,0,0,0-7.74-2.65,12.73,12.73,0,0,0-8.66,3.46A11.86,11.86,0,0,0,101,63.66,11.69,11.69,0,0,0,104.54,72a12.73,12.73,0,0,0,8.66,3.46,12.08,12.08,0,0,0,7.74-2.65,2.92,2.92,0,0,1,3.85.53,2.84,2.84,0,0,1-.48,3.85A18,18,0,0,1,113.2,81,17.59,17.59,0,0,1,95.54,63.66Z" transform="translate(0 0)" fill="#edeeef"/><path d="M132.72,63.66a17.66,17.66,0,0,1,17.65-17.31,18,18,0,0,1,11.11,3.75,2.76,2.76,0,0,1-3.37,4.38,12,12,0,0,0-7.74-2.65,12.73,12.73,0,0,0-8.66,3.46,11.87,11.87,0,0,0-3.51,8.37A11.7,11.7,0,0,0,141.71,72a12.73,12.73,0,0,0,8.66,3.46,12.08,12.08,0,0,0,7.74-2.65,2.92,2.92,0,0,1,3.85.53,2.84,2.84,0,0,1-.48,3.85A18,18,0,0,1,150.37,81,17.59,17.59,0,0,1,132.72,63.66Z" transform="translate(0 0)" fill="#edeeef"/><path d="M172.34,78.33V50A2.61,2.61,0,0,1,175,47.31h15.73A2.67,2.67,0,0,1,193.36,50a2.71,2.71,0,0,1-2.65,2.69h-13v8.8h11.21a2.67,2.67,0,0,1,0,5.34H177.68v8.85h13a2.67,2.67,0,0,1,0,5.34H175.13c-0.1,0-.1,0-0.1,0l0,0A2.64,2.64,0,0,1,172.34,78.33Z" transform="translate(0 0)" fill="#edeeef"/><path d="M201.92,78.33V50a2.64,2.64,0,0,1,2.65-2.65A2.68,2.68,0,0,1,207.25,50V75.64h13a2.67,2.67,0,0,1,0,5.34H204.56A2.64,2.64,0,0,1,201.92,78.33Z" transform="translate(0 0)" fill="#edeeef"/><path d="M230,78.33V50a2.61,2.61,0,0,1,2.65-2.65h15.73A2.67,2.67,0,0,1,251.06,50a2.71,2.71,0,0,1-2.65,2.69h-13v8.8h11.21a2.67,2.67,0,0,1,0,5.34H235.38v8.85h13a2.67,2.67,0,0,1,0,5.34H232.84c-0.1,0-.1,0-0.1,0l0,0A2.64,2.64,0,0,1,230,78.33Z" transform="translate(0 0)" fill="#edeeef"/><path d="M282.85,77a2.66,2.66,0,0,1-1.68,3.37,4.25,4.25,0,0,1-1.06.14h0a3.5,3.5,0,0,1-1.88-.53,4.73,4.73,0,0,1-1.54-1.68,12.93,12.93,0,0,1-1-5.77,4.06,4.06,0,0,0-.58-2.07A4.46,4.46,0,0,0,273.61,69a9.15,9.15,0,0,0-2.69-1.15h-5.68V78.33A2.68,2.68,0,0,1,262.55,81a2.64,2.64,0,0,1-2.65-2.65V50a2.61,2.61,0,0,1,2.65-2.65h8.61a10.29,10.29,0,0,1,6.54,18.23,7.45,7.45,0,0,1,1.68,1.78A9.11,9.11,0,0,1,281,72.51a12.15,12.15,0,0,0,.19,2.84A2.59,2.59,0,0,1,282.85,77Zm-6.73-19.33a5,5,0,0,0-5-5h-5.92v9.91h5.92A4.94,4.94,0,0,0,276.12,57.65Z" transform="translate(0 0)" fill="#edeeef"/><path d="M308.86,73H297.18l-2.36,6.25a2.7,2.7,0,0,1-2.5,1.68,2.79,2.79,0,0,1-.91-0.14,2.73,2.73,0,0,1-1.59-3.46L300.45,49A2.69,2.69,0,0,1,303,47.36,2.65,2.65,0,0,1,305.55,49l10.63,28.33a2.73,2.73,0,0,1-1.59,3.46,2.69,2.69,0,0,1-3.37-1.54Zm-2-5.29L303,57.41l-3.9,10.34h7.79Z" transform="translate(0 0)" fill="#edeeef"/><path d="M339.59,52.65h-7.65V78.33A2.61,2.61,0,0,1,329.3,81a2.64,2.64,0,0,1-2.65-2.65V52.65h-7.6A2.68,2.68,0,0,1,316.41,50a2.61,2.61,0,0,1,2.65-2.65h20.54A2.64,2.64,0,0,1,342.24,50,2.71,2.71,0,0,1,339.59,52.65Z" transform="translate(0 0)" fill="#edeeef"/><path d="M351.23,78.33V50a2.61,2.61,0,0,1,2.65-2.65H369.6A2.67,2.67,0,0,1,372.25,50a2.71,2.71,0,0,1-2.65,2.69h-13v8.8h11.21a2.67,2.67,0,0,1,0,5.34H356.57v8.85h13a2.67,2.67,0,0,1,0,5.34H354c-0.1,0-.1,0-0.1,0l0,0A2.64,2.64,0,0,1,351.23,78.33Z" transform="translate(0 0)" fill="#edeeef"/></g><path d="M83.76,72.54H72.07l-2.36,6.25a2.7,2.7,0,0,1-2.5,1.68,2.79,2.79,0,0,1-.91-0.14,2.73,2.73,0,0,1-1.59-3.46L75.34,48.54a2.69,2.69,0,0,1,2.55-1.68,2.65,2.65,0,0,1,2.55,1.68L91.07,76.87a2.73,2.73,0,0,1-1.59,3.46,2.69,2.69,0,0,1-3.37-1.54Zm-2-5.29-3.9-10.34L74,67.25h7.79Z" transform="translate(0 0)" fill="#f9c5d2"/><path d="M95.29,63.16a17.66,17.66,0,0,1,17.65-17.31,18,18,0,0,1,11.11,3.75,2.85,2.85,0,0,1,.48,3.85,2.82,2.82,0,0,1-3.85.53,12,12,0,0,0-7.74-2.65,12.73,12.73,0,0,0-8.66,3.46,11.86,11.86,0,0,0-3.51,8.37,11.69,11.69,0,0,0,3.51,8.37A12.73,12.73,0,0,0,112.95,75a12.08,12.08,0,0,0,7.74-2.65,2.92,2.92,0,0,1,3.85.53,2.84,2.84,0,0,1-.48,3.85,18,18,0,0,1-11.11,3.75A17.59,17.59,0,0,1,95.29,63.16Z" transform="translate(0 0)" fill="#f9c5d2"/><path d="M132.47,63.16a17.66,17.66,0,0,1,17.65-17.31,18,18,0,0,1,11.11,3.75A2.76,2.76,0,0,1,157.86,54a12,12,0,0,0-7.74-2.65,12.73,12.73,0,0,0-8.66,3.46,11.87,11.87,0,0,0-3.51,8.37,11.7,11.7,0,0,0,3.51,8.37A12.73,12.73,0,0,0,150.12,75a12.08,12.08,0,0,0,7.74-2.65,2.92,2.92,0,0,1,3.85.53,2.84,2.84,0,0,1-.48,3.85,18,18,0,0,1-11.11,3.75A17.59,17.59,0,0,1,132.47,63.16Z" transform="translate(0 0)" fill="#f9c5d2"/><path d="M172.09,77.83V49.45a2.61,2.61,0,0,1,2.65-2.65h15.73a2.67,2.67,0,0,1,2.65,2.65,2.71,2.71,0,0,1-2.65,2.69h-13v8.8h11.21a2.67,2.67,0,0,1,0,5.34H177.43v8.85h13a2.67,2.67,0,0,1,0,5.34H174.88c-0.1,0-.1,0-0.1,0l0,0A2.64,2.64,0,0,1,172.09,77.83Z" transform="translate(0 0)" fill="#f9c5d2"/><path d="M201.67,77.83V49.45a2.64,2.64,0,0,1,2.65-2.65A2.68,2.68,0,0,1,207,49.45V75.14h13a2.67,2.67,0,0,1,0,5.34H204.31A2.64,2.64,0,0,1,201.67,77.83Z" transform="translate(0 0)" fill="#f9c5d2"/><path d="M229.8,77.83V49.45a2.61,2.61,0,0,1,2.65-2.65h15.73a2.67,2.67,0,0,1,2.65,2.65,2.71,2.71,0,0,1-2.65,2.69h-13v8.8h11.21a2.67,2.67,0,0,1,0,5.34H235.13v8.85h13a2.67,2.67,0,0,1,0,5.34H232.59c-0.1,0-.1,0-0.1,0l0,0A2.64,2.64,0,0,1,229.8,77.83Z" transform="translate(0 0)" fill="#f9c5d2"/><path d="M282.6,76.48a2.66,2.66,0,0,1-1.68,3.37,4.25,4.25,0,0,1-1.06.14h0a3.5,3.5,0,0,1-1.88-.53,4.73,4.73,0,0,1-1.54-1.68,12.93,12.93,0,0,1-1-5.77,4.06,4.06,0,0,0-.58-2.07,4.46,4.46,0,0,0-1.44-1.39,9.15,9.15,0,0,0-2.69-1.15H265V77.83a2.68,2.68,0,0,1-2.69,2.65,2.64,2.64,0,0,1-2.65-2.65V49.45a2.61,2.61,0,0,1,2.65-2.65h8.61A10.29,10.29,0,0,1,277.45,65a7.45,7.45,0,0,1,1.68,1.78A9.11,9.11,0,0,1,280.72,72a12.15,12.15,0,0,0,.19,2.84A2.59,2.59,0,0,1,282.6,76.48Zm-6.73-19.33a5,5,0,0,0-5-5H265v9.91h5.92A4.94,4.94,0,0,0,275.87,57.15Z" transform="translate(0 0)" fill="#f9c5d2"/><path d="M308.61,72.54H296.93l-2.36,6.25a2.7,2.7,0,0,1-2.5,1.68,2.79,2.79,0,0,1-.91-0.14,2.73,2.73,0,0,1-1.59-3.46L300.2,48.54a2.69,2.69,0,0,1,2.55-1.68,2.65,2.65,0,0,1,2.55,1.68l10.63,28.33a2.73,2.73,0,0,1-1.59,3.46A2.69,2.69,0,0,1,311,78.79Zm-2-5.29-3.9-10.34-3.9,10.34h7.79Z" transform="translate(0 0)" fill="#f9c5d2"/><path d="M339.34,52.15H331.7V77.83a2.61,2.61,0,0,1-2.65,2.65,2.64,2.64,0,0,1-2.65-2.65V52.15h-7.6a2.68,2.68,0,0,1-2.65-2.69,2.61,2.61,0,0,1,2.65-2.65h20.54A2.64,2.64,0,0,1,342,49.45,2.71,2.71,0,0,1,339.34,52.15Z" transform="translate(0 0)" fill="#f9c5d2"/><path d="M351,77.83V49.45a2.61,2.61,0,0,1,2.65-2.65h15.73A2.67,2.67,0,0,1,372,49.45a2.71,2.71,0,0,1-2.65,2.69h-13v8.8h11.21a2.67,2.67,0,0,1,0,5.34H356.32v8.85h13a2.67,2.67,0,0,1,0,5.34H353.77c-0.1,0-.1,0-0.1,0l0,0A2.64,2.64,0,0,1,351,77.83Z" transform="translate(0 0)" fill="#f9c5d2"/><g opacity="0.56"><path d="M65.34,325.48A17.66,17.66,0,0,1,83,308.16a18,18,0,0,1,11.11,3.75,2.76,2.76,0,0,1-3.37,4.38A12,12,0,0,0,83,313.64a12.74,12.74,0,0,0-8.66,3.46,11.87,11.87,0,0,0-3.51,8.37,11.7,11.7,0,0,0,3.51,8.37A12.74,12.74,0,0,0,83,337.31a12.08,12.08,0,0,0,7.74-2.65,2.92,2.92,0,0,1,3.85.53,2.84,2.84,0,0,1-.48,3.85A18,18,0,0,1,83,342.79,17.59,17.59,0,0,1,65.34,325.48Z" transform="translate(0 0)" fill="#6e7072"/><path d="M130.65,313.31a17.67,17.67,0,0,1,0,24.34,15.75,15.75,0,0,1-11.5,5.15,16.23,16.23,0,0,1-11.78-5.15,17.93,17.93,0,0,1,0-24.34,16,16,0,0,1,11.78-5.15A15.57,15.57,0,0,1,130.65,313.31ZM130,325.48a12.46,12.46,0,0,0-3.27-8.42,10.38,10.38,0,0,0-15.39,0,12.23,12.23,0,0,0-3.27,8.42,12,12,0,0,0,3.27,8.37,10.28,10.28,0,0,0,15.39,0A12.25,12.25,0,0,0,130,325.48Z" transform="translate(0 0)" fill="#6e7072"/><path d="M145.89,340.15V311.77a2.64,2.64,0,0,1,2.65-2.65,2.68,2.68,0,0,1,2.69,2.65v25.68h13a2.67,2.67,0,0,1,0,5.34H148.54A2.64,2.64,0,0,1,145.89,340.15Z" transform="translate(0 0)" fill="#6e7072"/><path d="M174.12,340.15V311.77a2.64,2.64,0,0,1,2.65-2.65,2.68,2.68,0,0,1,2.69,2.65v25.68h13a2.67,2.67,0,0,1,0,5.34H176.77A2.64,2.64,0,0,1,174.12,340.15Z" transform="translate(0 0)" fill="#6e7072"/><path d="M219.52,334.86H207.83l-2.36,6.25a2.7,2.7,0,0,1-2.5,1.68,2.79,2.79,0,0,1-.91-0.14,2.73,2.73,0,0,1-1.59-3.46l10.63-28.33a2.69,2.69,0,0,1,2.55-1.68,2.65,2.65,0,0,1,2.55,1.68l10.63,28.33a2.73,2.73,0,0,1-1.59,3.46,2.69,2.69,0,0,1-3.37-1.54Zm-2-5.29-3.9-10.34-3.9,10.34h7.79Z" transform="translate(0 0)" fill="#6e7072"/><path d="M234.57,340.15V311.77a2.64,2.64,0,0,1,2.65-2.65H244a9.14,9.14,0,0,1,7.31,14.62,10.3,10.3,0,0,1-5.44,19H237.4a0,0,0,0,1,0,0,0.49,0.49,0,0,0-.14,0A2.67,2.67,0,0,1,234.57,340.15Zm5.34-18H244a3.86,3.86,0,0,0,3.8-3.9,3.78,3.78,0,0,0-3.8-3.8H239.9v7.7Zm0,15.29h6a5,5,0,0,0,0-10h-6v10Z" transform="translate(0 0)" fill="#6e7072"/><path d="M290.83,313.31a17.67,17.67,0,0,1,0,24.34,15.75,15.75,0,0,1-11.5,5.15,16.23,16.23,0,0,1-11.78-5.15,17.93,17.93,0,0,1,0-24.34,16,16,0,0,1,11.78-5.15A15.57,15.57,0,0,1,290.83,313.31Zm-0.62,12.17a12.46,12.46,0,0,0-3.27-8.42,10.38,10.38,0,0,0-15.39,0,12.23,12.23,0,0,0-3.27,8.42,12,12,0,0,0,3.27,8.37,10.28,10.28,0,0,0,15.39,0A12.25,12.25,0,0,0,290.21,325.48Z" transform="translate(0 0)" fill="#6e7072"/><path d="M328.58,338.8a2.66,2.66,0,0,1-1.68,3.37,4.24,4.24,0,0,1-1.06.14h0a3.5,3.5,0,0,1-1.88-.53,4.72,4.72,0,0,1-1.54-1.68,12.93,12.93,0,0,1-1-5.77,4.06,4.06,0,0,0-.58-2.07,4.45,4.45,0,0,0-1.44-1.39,9.13,9.13,0,0,0-2.69-1.15H311v10.44a2.68,2.68,0,0,1-2.69,2.65,2.64,2.64,0,0,1-2.65-2.65V311.77a2.61,2.61,0,0,1,2.65-2.65h8.61a10.29,10.29,0,0,1,6.54,18.23,7.45,7.45,0,0,1,1.68,1.78,9.11,9.11,0,0,1,1.59,5.19,12.15,12.15,0,0,0,.19,2.84A2.59,2.59,0,0,1,328.58,338.8Zm-6.73-19.33a5,5,0,0,0-5-5H311v9.91h5.92A4.94,4.94,0,0,0,321.85,319.46Z" transform="translate(0 0)" fill="#6e7072"/><path d="M354.69,334.86H343l-2.36,6.25a2.7,2.7,0,0,1-2.5,1.68,2.79,2.79,0,0,1-.91-0.14,2.73,2.73,0,0,1-1.59-3.46l10.63-28.33a2.69,2.69,0,0,1,2.55-1.68,2.65,2.65,0,0,1,2.55,1.68L362,339.18a2.73,2.73,0,0,1-1.59,3.46,2.69,2.69,0,0,1-3.37-1.54Zm-2-5.29-3.9-10.34-3.9,10.34h7.79Z" transform="translate(0 0)" fill="#6e7072"/><path d="M385.52,314.46h-7.65v25.68a2.61,2.61,0,0,1-2.65,2.65,2.64,2.64,0,0,1-2.65-2.65V314.46H365a2.68,2.68,0,0,1-2.65-2.69,2.61,2.61,0,0,1,2.65-2.65h20.54a2.64,2.64,0,0,1,2.65,2.65A2.71,2.71,0,0,1,385.52,314.46Z" transform="translate(0 0)" fill="#6e7072"/><path d="M397.25,340.15V311.77a2.61,2.61,0,0,1,2.65-2.65h15.73a2.67,2.67,0,0,1,2.65,2.65,2.71,2.71,0,0,1-2.65,2.69h-13v8.8h11.21a2.67,2.67,0,0,1,0,5.34H402.59v8.85h13a2.67,2.67,0,0,1,0,5.34H400c-0.1,0-.1,0-0.1,0l0,0A2.64,2.64,0,0,1,397.25,340.15Z" transform="translate(0 0)" fill="#6e7072"/></g><path d="M65.09,325a17.66,17.66,0,0,1,17.65-17.31,18,18,0,0,1,11.11,3.75,2.76,2.76,0,0,1-3.37,4.38,12,12,0,0,0-7.74-2.65,12.74,12.74,0,0,0-8.66,3.46A11.87,11.87,0,0,0,70.58,325a11.7,11.7,0,0,0,3.51,8.37,12.74,12.74,0,0,0,8.66,3.46,12.08,12.08,0,0,0,7.74-2.65,2.92,2.92,0,0,1,3.85.53,2.84,2.84,0,0,1-.48,3.85,18,18,0,0,1-11.11,3.75A17.59,17.59,0,0,1,65.09,325Z" transform="translate(0 0)" fill="#fff"/><path d="M130.4,312.81a17.67,17.67,0,0,1,0,24.34,15.75,15.75,0,0,1-11.5,5.15,16.23,16.23,0,0,1-11.78-5.15,17.93,17.93,0,0,1,0-24.34,16,16,0,0,1,11.78-5.15A15.57,15.57,0,0,1,130.4,312.81ZM129.78,325a12.46,12.46,0,0,0-3.27-8.42,10.38,10.38,0,0,0-15.39,0,12.23,12.23,0,0,0-3.27,8.42,12,12,0,0,0,3.27,8.37,10.28,10.28,0,0,0,15.39,0A12.25,12.25,0,0,0,129.78,325Z" transform="translate(0 0)" fill="#fff"/><path d="M145.64,339.65V311.27a2.64,2.64,0,0,1,2.65-2.65,2.68,2.68,0,0,1,2.69,2.65V337h13a2.67,2.67,0,0,1,0,5.34H148.29A2.64,2.64,0,0,1,145.64,339.65Z" transform="translate(0 0)" fill="#fff"/><path d="M173.87,339.65V311.27a2.64,2.64,0,0,1,2.65-2.65,2.68,2.68,0,0,1,2.69,2.65V337h13a2.67,2.67,0,0,1,0,5.34H176.52A2.64,2.64,0,0,1,173.87,339.65Z" transform="translate(0 0)" fill="#fff"/><path d="M219.27,334.36H207.58l-2.36,6.25a2.7,2.7,0,0,1-2.5,1.68,2.79,2.79,0,0,1-.91-0.14,2.73,2.73,0,0,1-1.59-3.46l10.63-28.33a2.69,2.69,0,0,1,2.55-1.68,2.65,2.65,0,0,1,2.55,1.68l10.63,28.33a2.73,2.73,0,0,1-1.59,3.46,2.69,2.69,0,0,1-3.37-1.54Zm-2-5.29-3.9-10.34-3.9,10.34h7.79Z" transform="translate(0 0)" fill="#fff"/><path d="M234.32,339.65V311.27a2.64,2.64,0,0,1,2.65-2.65h6.83a9.14,9.14,0,0,1,7.31,14.62,10.3,10.3,0,0,1-5.44,19h-8.51a0,0,0,0,1,0,0,0.49,0.49,0,0,0-.14,0A2.67,2.67,0,0,1,234.32,339.65Zm5.34-18h4.14a3.86,3.86,0,0,0,3.8-3.9,3.78,3.78,0,0,0-3.8-3.8h-4.14v7.7Zm0,15.29h6a5,5,0,0,0,0-10h-6v10Z" transform="translate(0 0)" fill="#fff"/><path d="M290.58,312.81a17.67,17.67,0,0,1,0,24.34,15.75,15.75,0,0,1-11.5,5.15,16.23,16.23,0,0,1-11.78-5.15,17.93,17.93,0,0,1,0-24.34,16,16,0,0,1,11.78-5.15A15.57,15.57,0,0,1,290.58,312.81ZM290,325a12.46,12.46,0,0,0-3.27-8.42,10.38,10.38,0,0,0-15.39,0A12.23,12.23,0,0,0,268,325a12,12,0,0,0,3.27,8.37,10.28,10.28,0,0,0,15.39,0A12.25,12.25,0,0,0,290,325Z" transform="translate(0 0)" fill="#fff"/><path d="M328.33,338.3a2.66,2.66,0,0,1-1.68,3.37,4.24,4.24,0,0,1-1.06.14h0a3.5,3.5,0,0,1-1.88-.53,4.72,4.72,0,0,1-1.54-1.68,12.93,12.93,0,0,1-1-5.77,4.06,4.06,0,0,0-.58-2.07,4.45,4.45,0,0,0-1.44-1.39,9.13,9.13,0,0,0-2.69-1.15h-5.68v10.44a2.68,2.68,0,0,1-2.69,2.65,2.64,2.64,0,0,1-2.65-2.65V311.27a2.61,2.61,0,0,1,2.65-2.65h8.61a10.29,10.29,0,0,1,6.54,18.23,7.45,7.45,0,0,1,1.68,1.78,9.11,9.11,0,0,1,1.59,5.19,12.15,12.15,0,0,0,.19,2.84A2.59,2.59,0,0,1,328.33,338.3ZM321.6,319a5,5,0,0,0-5-5h-5.92v9.91h5.92A4.94,4.94,0,0,0,321.6,319Z" transform="translate(0 0)" fill="#fff"/><path d="M354.44,334.36H342.76l-2.36,6.25a2.7,2.7,0,0,1-2.5,1.68,2.79,2.79,0,0,1-.91-0.14,2.73,2.73,0,0,1-1.59-3.46L346,310.36a2.69,2.69,0,0,1,2.55-1.68,2.65,2.65,0,0,1,2.55,1.68l10.63,28.33a2.73,2.73,0,0,1-1.59,3.46,2.69,2.69,0,0,1-3.37-1.54Zm-2-5.29-3.9-10.34-3.9,10.34h7.79Z" transform="translate(0 0)" fill="#fff"/><path d="M385.27,314h-7.65v25.68a2.61,2.61,0,0,1-2.65,2.65,2.64,2.64,0,0,1-2.65-2.65V314h-7.6a2.68,2.68,0,0,1-2.65-2.69,2.61,2.61,0,0,1,2.65-2.65h20.54a2.64,2.64,0,0,1,2.65,2.65A2.71,2.71,0,0,1,385.27,314Z" transform="translate(0 0)" fill="#fff"/><path d="M397,339.65V311.27a2.61,2.61,0,0,1,2.65-2.65h15.73a2.67,2.67,0,0,1,2.65,2.65,2.71,2.71,0,0,1-2.65,2.69h-13v8.8h11.21a2.67,2.67,0,0,1,0,5.34H402.34V337h13a2.67,2.67,0,0,1,0,5.34H399.79c-0.1,0-.1,0-0.1,0l0,0A2.64,2.64,0,0,1,397,339.65Z" transform="translate(0 0)" fill="#fff"/><g opacity="0.56"><path d="M69.74,247.63V219.25a2.61,2.61,0,0,1,2.65-2.65H88.11a2.67,2.67,0,0,1,2.65,2.65,2.71,2.71,0,0,1-2.65,2.69h-13v8.8H86.28a2.67,2.67,0,0,1,0,5.34H75.08v8.85h13a2.67,2.67,0,0,1,0,5.34H72.53c-0.1,0-.1,0-0.1,0l0,0A2.64,2.64,0,0,1,69.74,247.63Z" transform="translate(0 0)" fill="#edeeef"/><path d="M104.6,247.63a2.62,2.62,0,1,1-5.24,0v-28a2.6,2.6,0,0,1,1.06-2.21,2.65,2.65,0,0,1,3.66.58l15.54,21.5V219.69a2.62,2.62,0,0,1,2.6-2.6,2.66,2.66,0,0,1,2.65,2.6v27.94a2.67,2.67,0,0,1-2.65,2.65,2.61,2.61,0,0,1-2-1A1.28,1.28,0,0,1,120,249L104.6,227.67v20Z" transform="translate(0 0)" fill="#edeeef"/><path d="M133.55,233a17.53,17.53,0,0,1,17.75-17.36,17.78,17.78,0,0,1,11,3.75,2.77,2.77,0,0,1,.53,3.9,2.8,2.8,0,0,1-3.9.43,12.5,12.5,0,0,0-7.6-2.6,11.93,11.93,0,0,0-8.66,3.51,11.4,11.4,0,0,0,0,16.64,11.93,11.93,0,0,0,8.66,3.51,13.26,13.26,0,0,0,6.59-1.83v-6.59H151a2.77,2.77,0,0,1-2.74-2.74,2.7,2.7,0,0,1,2.74-2.69h9.57a2.71,2.71,0,0,1,2.79,2.69v10.63a4.15,4.15,0,0,1-.14.82c0,0.1,0,.14-0.1.24v0a2.28,2.28,0,0,1-.91,1.15,17.75,17.75,0,0,1-10.92,3.75A17.48,17.48,0,0,1,133.55,233Z" transform="translate(0 0)" fill="#edeeef"/><path d="M192.41,242.34H180.72l-2.36,6.25a2.7,2.7,0,0,1-2.5,1.68,2.79,2.79,0,0,1-.91-0.14,2.73,2.73,0,0,1-1.59-3.46L184,218.34a2.69,2.69,0,0,1,2.55-1.68,2.65,2.65,0,0,1,2.55,1.68l10.63,28.33a2.73,2.73,0,0,1-1.59,3.46,2.69,2.69,0,0,1-3.37-1.54Zm-2-5.29-3.9-10.34L182.65,237h7.79Z" transform="translate(0 0)" fill="#edeeef"/><path d="M204.34,233a17.53,17.53,0,0,1,17.75-17.36,17.78,17.78,0,0,1,11,3.75,2.77,2.77,0,0,1,.53,3.9,2.8,2.8,0,0,1-3.9.43,12.5,12.5,0,0,0-7.6-2.6,11.93,11.93,0,0,0-8.66,3.51,11.4,11.4,0,0,0,0,16.64,11.93,11.93,0,0,0,8.66,3.51,13.26,13.26,0,0,0,6.59-1.83v-6.59h-6.88a2.77,2.77,0,0,1-2.74-2.74,2.7,2.7,0,0,1,2.74-2.69h9.57a2.71,2.71,0,0,1,2.79,2.69v10.63a4.15,4.15,0,0,1-.14.82c0,0.1,0,.14-0.1.24v0a2.28,2.28,0,0,1-.91,1.15,17.75,17.75,0,0,1-10.92,3.75A17.48,17.48,0,0,1,204.34,233Z" transform="translate(0 0)" fill="#edeeef"/><path d="M246,247.63V219.25a2.61,2.61,0,0,1,2.65-2.65H264.4a2.67,2.67,0,0,1,2.65,2.65,2.71,2.71,0,0,1-2.65,2.69h-13v8.8h11.21a2.67,2.67,0,0,1,0,5.34H251.37v8.85h13a2.67,2.67,0,0,1,0,5.34H248.82c-0.1,0-.1,0-0.1,0l0,0A2.64,2.64,0,0,1,246,247.63Z" transform="translate(0 0)" fill="#edeeef"/></g><path d="M69.49,247.13V218.75a2.61,2.61,0,0,1,2.65-2.65H87.86a2.67,2.67,0,0,1,2.65,2.65,2.71,2.71,0,0,1-2.65,2.69h-13v8.8H86a2.67,2.67,0,0,1,0,5.34H74.83v8.85h13a2.67,2.67,0,0,1,0,5.34H72.28c-0.1,0-.1,0-0.1,0l0,0A2.64,2.64,0,0,1,69.49,247.13Z" transform="translate(0 0)" fill="#f9c5d2"/><path d="M104.35,247.13a2.62,2.62,0,1,1-5.24,0v-28a2.6,2.6,0,0,1,1.06-2.21,2.65,2.65,0,0,1,3.66.58L119.36,239V219.19a2.62,2.62,0,0,1,2.6-2.6,2.66,2.66,0,0,1,2.65,2.6v27.94a2.67,2.67,0,0,1-2.65,2.65,2.61,2.61,0,0,1-2-1,1.28,1.28,0,0,1-.24-0.29l-15.39-21.35v20Z" transform="translate(0 0)" fill="#f9c5d2"/><path d="M133.3,232.51A17.53,17.53,0,0,1,151,215.15a17.78,17.78,0,0,1,11,3.75,2.77,2.77,0,0,1,.53,3.9,2.8,2.8,0,0,1-3.9.43,12.5,12.5,0,0,0-7.6-2.6,11.93,11.93,0,0,0-8.66,3.51,11.4,11.4,0,0,0,0,16.64,11.93,11.93,0,0,0,8.66,3.51,13.26,13.26,0,0,0,6.59-1.83v-6.59h-6.88a2.77,2.77,0,0,1-2.74-2.74,2.7,2.7,0,0,1,2.74-2.69h9.57a2.71,2.71,0,0,1,2.79,2.69v10.63a4.15,4.15,0,0,1-.14.82c0,0.1,0,.14-0.1.24v0A2.28,2.28,0,0,1,162,246,17.75,17.75,0,0,1,151,249.78,17.48,17.48,0,0,1,133.3,232.51Z" transform="translate(0 0)" fill="#f9c5d2"/><path d="M192.16,241.84H180.47l-2.36,6.25a2.7,2.7,0,0,1-2.5,1.68,2.79,2.79,0,0,1-.91-0.14,2.73,2.73,0,0,1-1.59-3.46l10.63-28.33a2.69,2.69,0,0,1,2.55-1.68,2.65,2.65,0,0,1,2.55,1.68l10.63,28.33a2.73,2.73,0,0,1-1.59,3.46,2.69,2.69,0,0,1-3.37-1.54Zm-2-5.29-3.9-10.34-3.9,10.34h7.79Z" transform="translate(0 0)" fill="#f9c5d2"/><path d="M204.09,232.51a17.53,17.53,0,0,1,17.75-17.36,17.78,17.78,0,0,1,11,3.75,2.77,2.77,0,0,1,.53,3.9,2.8,2.8,0,0,1-3.9.43,12.5,12.5,0,0,0-7.6-2.6,11.93,11.93,0,0,0-8.66,3.51,11.4,11.4,0,0,0,0,16.64,11.93,11.93,0,0,0,8.66,3.51,13.26,13.26,0,0,0,6.59-1.83v-6.59h-6.88a2.77,2.77,0,0,1-2.74-2.74,2.7,2.7,0,0,1,2.74-2.69h9.57a2.71,2.71,0,0,1,2.79,2.69v10.63a4.15,4.15,0,0,1-.14.82c0,0.1,0,.14-0.1.24v0a2.28,2.28,0,0,1-.91,1.15,17.75,17.75,0,0,1-10.92,3.75A17.48,17.48,0,0,1,204.09,232.51Z" transform="translate(0 0)" fill="#f9c5d2"/><path d="M245.78,247.13V218.75a2.61,2.61,0,0,1,2.65-2.65h15.73a2.67,2.67,0,0,1,2.65,2.65,2.71,2.71,0,0,1-2.65,2.69h-13v8.8h11.21a2.67,2.67,0,0,1,0,5.34H251.12v8.85h13a2.67,2.67,0,0,1,0,5.34H248.57c-0.1,0-.1,0-0.1,0l0,0A2.64,2.64,0,0,1,245.78,247.13Z" transform="translate(0 0)" fill="#f9c5d2"/><g opacity="0.56"><path d="M78.09,154.95H72.17v10.44a2.67,2.67,0,0,1-5.34,0V137a2.64,2.64,0,0,1,2.65-2.65h8.61A10.29,10.29,0,1,1,78.09,154.95Zm-5.92-5.34h5.92a5,5,0,1,0,0-9.91H72.17v9.91Z" transform="translate(0 0)" fill="#6e7072"/><path d="M118.29,164a2.66,2.66,0,0,1-1.68,3.37,4.25,4.25,0,0,1-1.06.14h0a3.5,3.5,0,0,1-1.88-.53,4.73,4.73,0,0,1-1.54-1.68,12.93,12.93,0,0,1-1-5.77,4.06,4.06,0,0,0-.58-2.07,4.46,4.46,0,0,0-1.44-1.39,9.15,9.15,0,0,0-2.69-1.15h-5.68v10.44A2.68,2.68,0,0,1,98,168a2.64,2.64,0,0,1-2.65-2.65V137A2.61,2.61,0,0,1,98,134.36h8.61a10.29,10.29,0,0,1,6.54,18.23,7.45,7.45,0,0,1,1.68,1.78,9.11,9.11,0,0,1,1.59,5.19,12.15,12.15,0,0,0,.19,2.84A2.59,2.59,0,0,1,118.29,164Zm-6.73-19.33a5,5,0,0,0-5-5h-5.92v9.91h5.92A4.94,4.94,0,0,0,111.56,144.7Z" transform="translate(0 0)" fill="#6e7072"/><path d="M153,138.55a17.67,17.67,0,0,1,0,24.34,15.75,15.75,0,0,1-11.5,5.15,16.23,16.23,0,0,1-11.78-5.15,17.93,17.93,0,0,1,0-24.34,16,16,0,0,1,11.78-5.15A15.57,15.57,0,0,1,153,138.55Zm-0.62,12.17a12.46,12.46,0,0,0-3.27-8.42,10.38,10.38,0,0,0-15.39,0,12.23,12.23,0,0,0-3.27,8.42,12,12,0,0,0,3.27,8.37,10.28,10.28,0,0,0,15.39,0A12.25,12.25,0,0,0,152.34,150.71Z" transform="translate(0 0)" fill="#6e7072"/><path d="M167,165.38V137a2.61,2.61,0,0,1,2.65-2.65h5.68a16.83,16.83,0,0,1,0,33.67h-5.68A2.64,2.64,0,0,1,167,165.38Zm5.34-2.69h3a11.49,11.49,0,0,0,0-23h-3v23Z" transform="translate(0 0)" fill="#6e7072"/><path d="M216.68,168a13.88,13.88,0,0,1-13.9-13.9V137a2.61,2.61,0,0,1,2.65-2.65,2.68,2.68,0,0,1,2.69,2.65v17.12a8.56,8.56,0,0,0,17.12,0V137a2.65,2.65,0,0,1,2.69-2.65,2.61,2.61,0,0,1,2.65,2.65v17.12A13.91,13.91,0,0,1,216.68,168Z" transform="translate(0 0)" fill="#6e7072"/><path d="M241.54,150.71a17.66,17.66,0,0,1,17.65-17.31,18,18,0,0,1,11.11,3.75,2.76,2.76,0,0,1-3.37,4.38,12,12,0,0,0-7.74-2.65,12.73,12.73,0,0,0-8.66,3.46,11.87,11.87,0,0,0-3.51,8.37,11.7,11.7,0,0,0,3.51,8.37,12.73,12.73,0,0,0,8.66,3.46,12.08,12.08,0,0,0,7.74-2.65,2.92,2.92,0,0,1,3.85.53,2.84,2.84,0,0,1-.48,3.85A18,18,0,0,1,259.19,168,17.59,17.59,0,0,1,241.54,150.71Z" transform="translate(0 0)" fill="#6e7072"/><path d="M281.26,165.38V137a2.61,2.61,0,0,1,2.65-2.65h15.73a2.67,2.67,0,0,1,2.65,2.65,2.71,2.71,0,0,1-2.65,2.69h-13v8.8H297.8a2.67,2.67,0,0,1,0,5.34H286.6v8.85h13a2.67,2.67,0,0,1,0,5.34H284c-0.1,0-.1,0-0.1,0l0,0A2.64,2.64,0,0,1,281.26,165.38Z" transform="translate(0 0)" fill="#6e7072"/></g><path d="M77.84,154.45H71.92v10.44a2.67,2.67,0,0,1-5.34,0V136.51a2.64,2.64,0,0,1,2.65-2.65h8.61A10.29,10.29,0,1,1,77.84,154.45Zm-5.92-5.34h5.92a5,5,0,1,0,0-9.91H71.92v9.91Z" transform="translate(0 0)" fill="#fff"/><path d="M118,163.54a2.66,2.66,0,0,1-1.68,3.37,4.25,4.25,0,0,1-1.06.14h0a3.5,3.5,0,0,1-1.88-.53,4.73,4.73,0,0,1-1.54-1.68,12.93,12.93,0,0,1-1-5.77,4.06,4.06,0,0,0-.58-2.07,4.46,4.46,0,0,0-1.44-1.39,9.15,9.15,0,0,0-2.69-1.15h-5.68v10.44a2.68,2.68,0,0,1-2.69,2.65,2.64,2.64,0,0,1-2.65-2.65V136.51a2.61,2.61,0,0,1,2.65-2.65h8.61a10.29,10.29,0,0,1,6.54,18.23,7.45,7.45,0,0,1,1.68,1.78,9.11,9.11,0,0,1,1.59,5.19,12.15,12.15,0,0,0,.19,2.84A2.59,2.59,0,0,1,118,163.54Zm-6.73-19.33a5,5,0,0,0-5-5h-5.92v9.91h5.92A4.94,4.94,0,0,0,111.31,144.2Z" transform="translate(0 0)" fill="#fff"/><path d="M152.72,138a17.67,17.67,0,0,1,0,24.34,15.75,15.75,0,0,1-11.5,5.15,16.23,16.23,0,0,1-11.78-5.15,17.93,17.93,0,0,1,0-24.34,16,16,0,0,1,11.78-5.15A15.57,15.57,0,0,1,152.72,138Zm-0.62,12.17a12.46,12.46,0,0,0-3.27-8.42,10.38,10.38,0,0,0-15.39,0,12.23,12.23,0,0,0-3.27,8.42,12,12,0,0,0,3.27,8.37,10.28,10.28,0,0,0,15.39,0A12.25,12.25,0,0,0,152.09,150.21Z" transform="translate(0 0)" fill="#fff"/><path d="M166.75,164.88V136.51a2.61,2.61,0,0,1,2.65-2.65h5.68a16.83,16.83,0,0,1,0,33.67H169.4A2.64,2.64,0,0,1,166.75,164.88Zm5.34-2.69h3a11.49,11.49,0,0,0,0-23h-3v23Z" transform="translate(0 0)" fill="#fff"/><path d="M216.43,167.53a13.88,13.88,0,0,1-13.9-13.9V136.51a2.61,2.61,0,0,1,2.65-2.65,2.68,2.68,0,0,1,2.69,2.65v17.12a8.56,8.56,0,0,0,17.12,0V136.51a2.65,2.65,0,0,1,2.69-2.65,2.61,2.61,0,0,1,2.65,2.65v17.12A13.91,13.91,0,0,1,216.43,167.53Z" transform="translate(0 0)" fill="#fff"/><path d="M241.29,150.21a17.66,17.66,0,0,1,17.65-17.31,18,18,0,0,1,11.11,3.75,2.76,2.76,0,0,1-3.37,4.38,12,12,0,0,0-7.74-2.65,12.73,12.73,0,0,0-8.66,3.46,11.87,11.87,0,0,0-3.51,8.37,11.7,11.7,0,0,0,3.51,8.37,12.73,12.73,0,0,0,8.66,3.46,12.08,12.08,0,0,0,7.74-2.65,2.92,2.92,0,0,1,3.85.53,2.84,2.84,0,0,1-.48,3.85,18,18,0,0,1-11.11,3.75A17.59,17.59,0,0,1,241.29,150.21Z" transform="translate(0 0)" fill="#fff"/><path d="M281,164.88V136.51a2.61,2.61,0,0,1,2.65-2.65h15.73a2.67,2.67,0,0,1,2.65,2.65,2.71,2.71,0,0,1-2.65,2.69h-13V148h11.21a2.67,2.67,0,0,1,0,5.34H286.35v8.85h13a2.67,2.67,0,0,1,0,5.34H283.8c-0.1,0-.1,0-0.1,0l0,0A2.64,2.64,0,0,1,281,164.88Z" transform="translate(0 0)" fill="#fff"/><path d="M148,462a27.07,27.07,0,1,1,45.36-20,2.1,2.1,0,0,1-2.17,2.17A2.33,2.33,0,0,1,189,442a22.68,22.68,0,1,0-45.36,0,22.4,22.4,0,0,0,9.51,18.68c0.17,0.17.33,0.5,0.5,0.67a0.16,0.16,0,0,0,.17.17A2.07,2.07,0,0,1,153,464a1.44,1.44,0,0,1-1,.5,33.79,33.79,0,0,0-18.18,29.85,33.27,33.27,0,0,0,66.54,0A35.12,35.12,0,0,0,199,485h-1a35.32,35.32,0,0,0-5.84-.33c-11.34,0-17.51,2.83-20.85,6a14.34,14.34,0,0,0-4,10.34c0,1.33.17,2.33,0.17,3.17a7.57,7.57,0,0,1,.17,1,2.15,2.15,0,0,1-1.17,2.83h-0.67a2.47,2.47,0,0,1-2.17-1.5A22.11,22.11,0,0,1,163,501a17.78,17.78,0,0,1,5.34-13.34c4.5-4.17,11.84-7.17,23.85-7.17,2,0,3.84,0,6,.17h1a13.6,13.6,0,0,0,7.84-2.33c2.17-1.67,3.34-4,3.67-8a27.84,27.84,0,0,0-.67-4.84,1.87,1.87,0,0,1,1.5-2.5,2,2,0,0,1,2.5,1.67,22,22,0,0,1,.67,5.67,13.35,13.35,0,0,1-5.17,11.51,13,13,0,0,1-6.17,2.84A37.48,37.48,0,1,1,148,462Z" transform="translate(0 0)" fill="#fff"/><path d="M416.6,411l2.08,34.11-1.84.44-2.08-34.11Z" transform="translate(0 0)" fill="#fff"/><path d="M426.08,426.79l1,16.27-1.84.44-1.28-20.94,1.84-.44,0.08,1.34a9.91,9.91,0,0,1,5.7-4,6.76,6.76,0,0,1,5.93.94,7,7,0,0,1,2.65,5.31l0.85,14-1.84.44-0.85-13.84a5.23,5.23,0,0,0-6.62-4.95,7.47,7.47,0,0,0-4.28,2.91A9.22,9.22,0,0,0,426.08,426.79Z" transform="translate(0 0)" fill="#fff"/><path d="M464.06,429.08l2,0.26a18.31,18.31,0,0,1-1.11,1.76,13.3,13.3,0,0,1-7.76,5.34,9.28,9.28,0,0,1-8.14-1.53,9.65,9.65,0,0,1-3.8-7.5,13.59,13.59,0,0,1,2.79-9.06,13.23,13.23,0,0,1,7.73-5.34,9.33,9.33,0,0,1,8.17,1.52,10.44,10.44,0,0,1,1.29,1.16l-1.92,1.22a8.2,8.2,0,0,0-.69-0.61,7.73,7.73,0,0,0-6.74-1.24,10.94,10.94,0,0,0-6.38,4.39,11.18,11.18,0,0,0-2.31,7.49,8,8,0,0,0,3.14,6.19A7.66,7.66,0,0,0,457,434.4a11,11,0,0,0,6.41-4.41Q463.78,429.54,464.06,429.08Z" transform="translate(0 0)" fill="#fff"/><path d="M469.93,411.54l1.84-.44,0.24,3.81a16.31,16.31,0,0,1,1.22-2,9.59,9.59,0,0,1,4.83-3.86l0.13,2.09a7.14,7.14,0,0,0-3.48,2.89,11.26,11.26,0,0,0-2.33,7.16L473,432l-1.84.44Z" transform="translate(0 0)" fill="#fff"/><path d="M487,424.72a7.62,7.62,0,0,0,6.32,1,11,11,0,0,0,6.41-4.41q0.33-.45.61-0.9l2,0.26a18.52,18.52,0,0,1-1.11,1.76,13.3,13.3,0,0,1-7.76,5.34,9.28,9.28,0,0,1-8.14-1.53,9.65,9.65,0,0,1-3.8-7.5,13.59,13.59,0,0,1,2.79-9.06,13.23,13.23,0,0,1,7.73-5.34,9.46,9.46,0,0,1,7.12.82,10.79,10.79,0,0,1,1.05.7l0.36,0.3-1.3,1.78ZM497.8,407a7.79,7.79,0,0,0-5.68-.59,10.94,10.94,0,0,0-6.38,4.39,11.18,11.18,0,0,0-2.31,7.49,8.17,8.17,0,0,0,2.19,5.36Z" transform="translate(0 0)" fill="#fff"/><path d="M529.14,418.59l-1.84.44L527,414.77a19.65,19.65,0,0,1-1.06,1.7,13.31,13.31,0,0,1-7.76,5.34,9.27,9.27,0,0,1-8.14-1.53,9.61,9.61,0,0,1-3.8-7.48,13.61,13.61,0,0,1,2.79-9.08,13.24,13.24,0,0,1,7.73-5.34,9.33,9.33,0,0,1,8.17,1.52,11.78,11.78,0,0,1,1.25,1.15l-0.19-3,1.84-.44Zm-2.4-8.77-0.22-3.8a7.72,7.72,0,0,0-9.6-5.59,10.94,10.94,0,0,0-6.4,4.41,11.23,11.23,0,0,0-2.3,7.5,7.93,7.93,0,0,0,3.14,6.18,7.69,7.69,0,0,0,6.74,1.25,11,11,0,0,0,6.41-4.41A11.63,11.63,0,0,0,526.74,409.82Z" transform="translate(0 0)" fill="#fff"/><path d="M540.15,405a11.81,11.81,0,0,1-3.38-1.48,4.11,4.11,0,0,1-1.63-3.2,5.85,5.85,0,0,1,1.19-3.91,5.66,5.66,0,0,1,3.31-2.3,3.89,3.89,0,0,1,3.4.57,3.63,3.63,0,0,1,1.44,2.75v0.11l-1.55,1a3.54,3.54,0,0,0-1.12-2.2,2.32,2.32,0,0,0-2.06-.33,3.53,3.53,0,0,0-2.05,1.41,3.62,3.62,0,0,0-.75,2.42,2.59,2.59,0,0,0,1,2,11.79,11.79,0,0,0,2.27,1.1,14,14,0,0,1,3.88,1.75,5.2,5.2,0,0,1,2,4,7.33,7.33,0,0,1-1.48,4.84,7,7,0,0,1-4.1,2.83,4.91,4.91,0,0,1-4.33-.81,4.69,4.69,0,0,1-2-3.58l1.79-.93a3.65,3.65,0,0,0,1.42,2.84,3.42,3.42,0,0,0,3,.56,4.89,4.89,0,0,0,2.84-2,5,5,0,0,0,1-3.36,3.57,3.57,0,0,0-1.39-2.74A14.8,14.8,0,0,0,540.15,405Z" transform="translate(0 0)" fill="#fff"/><path d="M555.29,408.34a7.62,7.62,0,0,0,6.32,1,11,11,0,0,0,6.4-4.41q0.33-.45.61-0.9l2,0.26a18.52,18.52,0,0,1-1.11,1.76,13.3,13.3,0,0,1-7.76,5.34,9.28,9.28,0,0,1-8.14-1.53,9.65,9.65,0,0,1-3.8-7.5,13.59,13.59,0,0,1,2.79-9.06,13.23,13.23,0,0,1,7.73-5.34,9.46,9.46,0,0,1,7.12.82,11,11,0,0,1,1.05.7l0.35,0.3-1.3,1.78Zm10.82-17.76a7.8,7.8,0,0,0-5.68-.59,10.94,10.94,0,0,0-6.38,4.4,11.18,11.18,0,0,0-2.31,7.49,8.17,8.17,0,0,0,2.19,5.36Z" transform="translate(0 0)" fill="#fff"/><path d="M541.73,477.28L530.39,480l-3.8,14.15-2,.47,10.18-37.8,14.2,32-1.94.46Zm-0.78-1.76-5.83-13.12L531,477.89Z" transform="translate(0 0)" fill="#fff"/><path d="M570,478.72l2,0.26a18.52,18.52,0,0,1-1.12,1.76,13.3,13.3,0,0,1-7.78,5.32,9.28,9.28,0,0,1-8.14-1.55,9.65,9.65,0,0,1-3.78-7.51,13.59,13.59,0,0,1,2.82-9.06,13.23,13.23,0,0,1,7.74-5.31,9.33,9.33,0,0,1,8.17,1.55,10.33,10.33,0,0,1,1.29,1.16l-1.92,1.21a8,8,0,0,0-.69-0.62,7.73,7.73,0,0,0-6.74-1.26,10.93,10.93,0,0,0-6.39,4.38,11.19,11.19,0,0,0-2.33,7.48,8,8,0,0,0,3.12,6.2A7.66,7.66,0,0,0,563,484a11,11,0,0,0,6.42-4.4Q569.77,479.18,570,478.72Z" transform="translate(0 0)" fill="#fff"/><path d="M594.14,473l2,0.26A18.52,18.52,0,0,1,595,475a13.3,13.3,0,0,1-7.77,5.32,9.28,9.28,0,0,1-8.14-1.55,9.64,9.64,0,0,1-3.78-7.51,13.59,13.59,0,0,1,2.82-9.05,13.24,13.24,0,0,1,7.74-5.31,9.33,9.33,0,0,1,8.17,1.55,10.33,10.33,0,0,1,1.29,1.16l-1.92,1.21a8.49,8.49,0,0,0-.69-0.62A7.73,7.73,0,0,0,586,459a10.94,10.94,0,0,0-6.39,4.38,11.18,11.18,0,0,0-2.32,7.48,8,8,0,0,0,3.12,6.2,7.65,7.65,0,0,0,6.71,1.29,11,11,0,0,0,6.42-4.4Q593.86,473.47,594.14,473Z" transform="translate(0 0)" fill="#fff"/><path d="M609.6,474.76q-3.77.89-6.14-.9a7,7,0,0,1-2.64-5.32l-0.75-13.1,1.84-.44,0.75,12.92a5.19,5.19,0,0,0,2.12,4.1,5.35,5.35,0,0,0,4.67.82,8,8,0,0,0,5.89-7.92L614.59,452l1.84-.44,0.75,13.1a9.83,9.83,0,0,1-1.94,6.41A9.46,9.46,0,0,1,609.6,474.76Z" transform="translate(0 0)" fill="#fff"/><path d="M622.56,450.16l1.84-.44,0.24,3.81a16.29,16.29,0,0,1,1.22-2,9.59,9.59,0,0,1,4.84-3.85l0.13,2.09a7.14,7.14,0,0,0-3.49,2.88,11.27,11.27,0,0,0-2.35,7.15l0.64,10.81-1.84.44Z" transform="translate(0 0)" fill="#fff"/><path d="M657.74,463.05l-1.84.44-0.25-4.26a19.4,19.4,0,0,1-1.07,1.7,13.3,13.3,0,0,1-7.78,5.32,9.27,9.27,0,0,1-8.14-1.55,9.61,9.61,0,0,1-3.78-7.49,13.61,13.61,0,0,1,2.81-9.08,13.23,13.23,0,0,1,7.74-5.31,9.33,9.33,0,0,1,8.17,1.55,11.63,11.63,0,0,1,1.25,1.15l-0.18-3,1.84-.44Zm-2.38-8.77-0.21-3.8a7.72,7.72,0,0,0-9.59-5.62,10.94,10.94,0,0,0-6.41,4.39,11.24,11.24,0,0,0-2.32,7.49,7.94,7.94,0,0,0,3.12,6.19,7.7,7.7,0,0,0,6.73,1.27,11,11,0,0,0,6.42-4.4A11.63,11.63,0,0,0,655.36,454.28Z" transform="translate(0 0)" fill="#fff"/><path d="M680.83,452.48l2,0.26a18.52,18.52,0,0,1-1.12,1.76,13.3,13.3,0,0,1-7.77,5.32,9.28,9.28,0,0,1-8.14-1.55,9.64,9.64,0,0,1-3.78-7.51,13.59,13.59,0,0,1,2.82-9.05,13.24,13.24,0,0,1,7.74-5.31,9.33,9.33,0,0,1,8.17,1.55A10.33,10.33,0,0,1,682,439.1l-1.92,1.21a8.49,8.49,0,0,0-.69-0.62,7.73,7.73,0,0,0-6.74-1.26,10.94,10.94,0,0,0-6.39,4.38,11.18,11.18,0,0,0-2.32,7.48,8,8,0,0,0,3.12,6.2,7.65,7.65,0,0,0,6.71,1.29,11,11,0,0,0,6.42-4.4Q680.55,452.94,680.83,452.48Z" transform="translate(0 0)" fill="#fff"/><path d="M694.69,452.4l-4,11-1.8.43,4.74-13.14-8.84-15.22,2.09-.49,7.55,13.43,5.8-16.59,2.07-.49-7.63,21.16Z" transform="translate(0 0)" fill="#fff"/><path d="M698.55,128.51s2,8.51,5.67,11.91,9.13,4.34,9.13,4.34a13.26,13.26,0,0,0-8.1,5.13c-4.26,6.11-5.93,15-5.93,15s-2-10.69-6-14.69a16.34,16.34,0,0,0-7.9-4.68s6.12-.89,9.13-4.34S698.55,128.51,698.55,128.51Z" transform="translate(0 0)" fill="#fff"/><path d="M752,330.06s2,8.51,5.67,11.91,9.13,4.34,9.13,4.34a13.26,13.26,0,0,0-8.1,5.13c-4.26,6.11-5.93,15-5.93,15s-2-10.69-6-14.69a16.34,16.34,0,0,0-7.9-4.68s6.12-.89,9.13-4.34S752,330.06,752,330.06Z" transform="translate(0 0)" fill="#fff"/><path d="M543.41,201.45s1.68,7,4.69,9.85a17,17,0,0,0,7.55,3.59,11,11,0,0,0-6.7,4.25c-3.52,5.05-4.91,12.42-4.91,12.42s-1.66-8.84-5-12.15a13.51,13.51,0,0,0-6.54-3.87s5.06-.74,7.55-3.59S543.41,201.45,543.41,201.45Z" transform="translate(0 0)" fill="#fff"/><path d="M623.2,37.4s1.29,5.41,3.6,7.57a13.06,13.06,0,0,0,5.8,2.76A8.43,8.43,0,0,0,627.45,51a28.75,28.75,0,0,0-3.77,9.55s-1.27-6.79-3.82-9.34a10.39,10.39,0,0,0-5-3s3.89-.57,5.8-2.76S623.2,37.4,623.2,37.4Z" transform="translate(0 0)" fill="#fff"/><path d="M341.49,112s1.47,6.14,4.09,8.6a14.82,14.82,0,0,0,6.59,3.13,9.57,9.57,0,0,0-5.84,3.7c-3.07,4.41-4.28,10.83-4.28,10.83s-1.45-7.71-4.34-10.6a11.79,11.79,0,0,0-5.7-3.37s4.42-.64,6.59-3.13S341.49,112,341.49,112Z" transform="translate(0 0)" fill="#fff"/><path d="M441.21,146.72s2,8.51,5.67,11.91S456,163,456,163a13.26,13.26,0,0,0-8.1,5.13c-4.26,6.11-5.93,15-5.93,15s-2-10.69-6-14.69a16.34,16.34,0,0,0-7.9-4.68s6.12-.89,9.13-4.34S441.21,146.72,441.21,146.72Z" transform="translate(0 0)" fill="#fff"/><path d="M319,365.29s2,8.51,5.67,11.91,9.13,4.34,9.13,4.34a13.26,13.26,0,0,0-8.1,5.13c-4.26,6.11-5.93,15-5.93,15s-2-10.69-6-14.69a16.34,16.34,0,0,0-7.9-4.68S312,381.43,315,378,319,365.29,319,365.29Z" transform="translate(0 0)" fill="#fff"/><path d="M775.9,94.12s1.41,5.91,3.93,8.27a14.26,14.26,0,0,0,6.34,3,9.21,9.21,0,0,0-5.62,3.56c-3,4.24-4.12,10.42-4.12,10.42s-1.39-7.42-4.17-10.2a11.34,11.34,0,0,0-5.49-3.25s4.25-.62,6.34-3S775.9,94.12,775.9,94.12Z" transform="translate(0 0)" fill="#fff"/></svg>